<svg xmlns="http://www.w3.org/2000/svg" viewBox="0 0 360 210" role="img" aria-label="technical outdoor shoe">
  <defs>
    <linearGradient id="upper" x1="54" y1="62" x2="318" y2="148" gradientUnits="userSpaceOnUse">
      <stop stop-color="#c8c7bf"/>
      <stop offset=".45" stop-color="#686d6a"/>
      <stop offset="1" stop-color="#1f2222"/>
    </linearGradient>
    <linearGradient id="sole" x1="55" y1="140" x2="330" y2="174" gradientUnits="userSpaceOnUse">
      <stop stop-color="#ece9df"/>
      <stop offset=".56" stop-color="#8d928f"/>
      <stop offset="1" stop-color="#202322"/>
    </linearGradient>
    <filter id="shadow" x="-20%" y="-30%" width="140%" height="170%">
      <feDropShadow dx="0" dy="17" stdDeviation="13" flood-color="#000" flood-opacity=".24"/>
    </filter>
  </defs>
  <ellipse cx="178" cy="179" rx="128" ry="18" fill="#000" opacity=".12"/>
  <g filter="url(#shadow)">
    <path d="M49 130c20-9 43-31 68-65 10-14 24-20 39-14 42 15 75 45 111 61 30 13 60 18 91 20-2 18-21 29-57 29H77c-29 0-44-10-28-31Z" fill="url(#upper)"/>
    <path d="M52 141c64 14 142 17 238 10 34-2 55 4 63 16-12 14-36 20-72 20H72c-31 0-44-10-39-29 5-8 11-13 19-17Z" fill="url(#sole)"/>
    <path d="M97 100c42 9 83 21 122 39" fill="none" stroke="#d9d6cd" stroke-width="9" stroke-linecap="round" opacity=".75"/>
    <path d="M127 84c26 9 55 25 87 49" fill="none" stroke="#242626" stroke-width="6" stroke-linecap="round" opacity=".58"/>
    <path d="M102 117l95-1M121 95l-18 31M148 101l-17 27M175 113l-18 20" stroke="#151717" stroke-width="4" stroke-linecap="round" opacity=".62"/>
    <path d="M76 171l-23 17M111 171l-14 17M147 171l-9 16M251 171l14 17M289 171l23 18" stroke="#171919" stroke-width="7" stroke-linecap="round"/>
    <path d="M242 121c26 9 56 13 91 13" fill="none" stroke="#fff" stroke-width="7" stroke-linecap="round" opacity=".22"/>
  </g>
</svg>
